<mxfile host="app.diagrams.net" modified="2022-07-23T02:31:18.522Z" agent="5.0 (Windows NT 10.0; Win64; x64) AppleWebKit/537.36 (KHTML, like Gecko) Chrome/103.0.0.0 Safari/537.36" etag="WjU2-EMGNA0z8yfCjW_O" version="20.2.0" type="github">
  <diagram id="Ba_K7raAQzgn0tVSbxiR" name="Page-1">
    <mxGraphModel dx="1611" dy="1101" grid="1" gridSize="10" guides="1" tooltips="1" connect="1" arrows="1" fold="1" page="1" pageScale="1" pageWidth="850" pageHeight="1100" math="0" shadow="0">
      <root>
        <mxCell id="0" />
        <mxCell id="1" parent="0" />
      </root>
    </mxGraphModel>
  </diagram>
</mxfile>
